<svg width="69" height="22" viewBox="0 0 69 22" fill="none" xmlns="http://www.w3.org/2000/svg">
<path d="M7.99589 3.44864C6.02089 3.44864 4.54443 3.89924 3.56651 4.80046C2.60777 5.6825 2.1284 6.96721 2.1284 8.6546V11.4733H11.735V13.3141H2.1284V21.8564H0V8.62583C0 6.42073 0.690293 4.695 2.07088 3.44864C3.45146 2.1831 5.39771 1.55033 7.90961 1.55033C10.3448 1.55033 12.3006 2.07764 13.7771 3.13225L13.0005 4.88675C11.6966 3.92801 10.0284 3.44864 7.99589 3.44864Z" fill="#222222"/>
<path d="M21.3002 22.0003C19.9388 22.0003 18.8842 21.6168 18.1364 20.8498C17.4077 20.0828 17.0434 19.0186 17.0434 17.6572V0.514893H19.0855V17.4846C19.0855 18.3858 19.2964 19.0761 19.7183 19.5555C20.1401 20.0157 20.7729 20.2458 21.6166 20.2458C22.1535 20.2458 22.6137 20.1595 22.9972 19.9869L23.141 21.6839C22.5466 21.8948 21.933 22.0003 21.3002 22.0003Z" fill="#222222"/>
<path d="M31.8222 22.0003C30.3649 22.0003 29.0515 21.6743 27.8818 21.0223C26.7121 20.3512 25.7918 19.4308 25.1206 18.2612C24.4495 17.0915 24.114 15.7684 24.114 14.292C24.114 12.8155 24.4495 11.4925 25.1206 10.3228C25.7918 9.15314 26.7121 8.24234 27.8818 7.59039C29.0515 6.93845 30.3649 6.61248 31.8222 6.61248C33.2795 6.61248 34.593 6.93845 35.7626 7.59039C36.9323 8.24234 37.8431 9.15314 38.4951 10.3228C39.1662 11.4925 39.5017 12.8155 39.5017 14.292C39.5017 15.7684 39.1662 17.0915 38.4951 18.2612C37.8431 19.4308 36.9323 20.3512 35.7626 21.0223C34.593 21.6743 33.2795 22.0003 31.8222 22.0003ZM31.8222 20.1882C32.896 20.1882 33.8548 19.9486 34.6984 19.4692C35.5613 18.9706 36.2324 18.2708 36.7118 17.3695C37.1912 16.4683 37.4309 15.4425 37.4309 14.292C37.4309 13.1415 37.1912 12.1156 36.7118 11.2144C36.2324 10.3132 35.5613 9.62292 34.6984 9.14355C33.8548 8.64501 32.896 8.39574 31.8222 8.39574C30.7484 8.39574 29.7801 8.64501 28.9172 9.14355C28.0736 9.62292 27.4024 10.3132 26.9039 11.2144C26.4245 12.1156 26.1848 13.1415 26.1848 14.292C26.1848 15.4425 26.4245 16.4683 26.9039 17.3695C27.4024 18.2708 28.0736 18.9706 28.9172 19.4692C29.7801 19.9486 30.7484 20.1882 31.8222 20.1882Z" fill="#222222"/>
<path d="M45.6267 9.69003C46.1061 8.67377 46.8156 7.90678 47.7551 7.38906C48.7139 6.87134 49.8931 6.61248 51.2929 6.61248V8.59707L50.8039 8.56831C49.2124 8.56831 47.9661 9.05727 47.0648 10.0352C46.1636 11.0131 45.713 12.3841 45.713 14.1482V21.8564H43.6709V6.72753H45.6267V9.69003Z" fill="#222222"/>
<path d="M68.6558 6.72753V21.8564H66.7V18.8652C66.0864 19.8814 65.2715 20.658 64.2552 21.1949C63.2581 21.7318 62.1268 22.0003 60.8613 22.0003C59.4423 22.0003 58.1576 21.6743 57.0071 21.0223C55.8566 20.3704 54.9554 19.4596 54.3035 18.2899C53.6515 17.1203 53.3256 15.7876 53.3256 14.292C53.3256 12.7964 53.6515 11.4637 54.3035 10.294C54.9554 9.12438 55.8566 8.22316 57.0071 7.59039C58.1576 6.93845 59.4423 6.61248 60.8613 6.61248C62.0884 6.61248 63.191 6.87134 64.1689 7.38906C65.166 7.8876 65.9809 8.62583 66.6137 9.60375V6.72753H68.6558ZM61.0338 20.1882C62.0884 20.1882 63.0376 19.9486 63.8813 19.4692C64.7442 18.9706 65.4153 18.2708 65.8946 17.3695C66.3932 16.4683 66.6425 15.4425 66.6425 14.292C66.6425 13.1415 66.3932 12.1156 65.8946 11.2144C65.4153 10.3132 64.7442 9.62292 63.8813 9.14355C63.0376 8.64501 62.0884 8.39574 61.0338 8.39574C59.96 8.39574 58.9917 8.64501 58.1288 9.14355C57.2852 9.62292 56.614 10.3132 56.1155 11.2144C55.6361 12.1156 55.3964 13.1415 55.3964 14.292C55.3964 15.4425 55.6361 16.4683 56.1155 17.3695C56.614 18.2708 57.2852 18.9706 58.1288 19.4692C58.9917 19.9486 59.96 20.1882 61.0338 20.1882Z" fill="#222222"/>
</svg>
